<svg xmlns="http://www.w3.org/2000/svg" width="12" height="11" viewBox="0 0 12 11" fill="none">
  <path fill-rule="evenodd" clip-rule="evenodd" d="M10.5474 7.6917L11.4275 9.59277C11.5449 9.81642 11.5156 10.124 11.3689 10.3476C11.2222 10.5713 10.9581 10.711 10.6648 10.711H1.33521C1.04182 10.711 0.777779 10.5713 0.631088 10.3476C0.484397 10.124 0.455059 9.84438 0.572412 9.59277L1.45256 7.6917L1.45243 5.55999C1.45243 3.77075 2.62596 2.14925 4.38625 1.50624C4.47426 0.72345 5.14904 0.108398 5.99985 0.108398C6.85066 0.108398 7.55477 0.72345 7.61345 1.50624C9.3444 2.14925 10.5473 3.77075 10.5473 5.55999L10.5474 7.6917ZM2.91314 5.2594C2.83848 5.23644 2.76895 5.19909 2.70852 5.14947C2.64809 5.09986 2.59794 5.03896 2.56094 4.97025C2.52394 4.90155 2.50082 4.82638 2.49289 4.74904C2.48496 4.6717 2.49239 4.59372 2.51474 4.51953C2.64137 4.02109 2.90168 3.56756 3.26791 3.2073C3.63415 2.84703 4.09258 2.59354 4.59432 2.47385C4.74445 2.449 4.89896 2.48304 5.02557 2.56885C5.15219 2.65467 5.24109 2.78562 5.27372 2.93434C5.30634 3.08306 5.28015 3.23803 5.20062 3.36687C5.1211 3.4957 4.99439 3.58843 4.84698 3.62567C4.55242 3.70549 4.28558 3.86302 4.07443 4.08174C3.86327 4.30047 3.71559 4.57235 3.64683 4.8689C3.61147 4.98395 3.54154 5.08512 3.44642 5.15883C3.3513 5.23253 3.23554 5.27524 3.1147 5.28123C3.045 5.28626 2.97483 5.27869 2.90759 5.25888L2.91314 5.2594ZM2.00488 6.54851L1.99994 6.46303C1.99093 6.30703 2.04442 6.15445 2.14866 6.03887C2.2529 5.92328 2.39934 5.85414 2.55577 5.84667C2.71219 5.8392 2.8658 5.89401 2.98278 5.99903C3.09977 6.10406 3.17055 6.2507 3.17957 6.4067L3.1845 6.49218C3.19352 6.64818 3.14002 6.80075 3.03579 6.91634C2.93155 7.03193 2.78511 7.10106 2.62868 7.10853C2.47225 7.116 2.31865 7.0612 2.20166 6.95617C2.08468 6.85115 2.01389 6.70451 2.00488 6.54851Z" fill="white"/>
</svg>