<svg xmlns="http://www.w3.org/2000/svg" width="12" height="12" viewBox="0 0 12 12" fill="none">
  <path d="M4.47475 2.78099C4.64455 2.87339 4.78555 3.00299 4.89115 3.15779C5.04094 3.05506 5.21831 3.00005 5.39995 2.99999H6.59995C6.78895 2.99999 6.96415 3.05819 7.10875 3.15779C7.21435 3.00359 7.35535 2.87339 7.52515 2.78099L9.02515 1.96259C9.82495 1.52639 10.8 2.10539 10.8 3.01619V5.98379C10.8 6.89459 9.82495 7.47359 9.02515 7.03739L7.52515 6.21899C7.3585 6.1281 7.21579 5.99896 7.10875 5.84219C6.95896 5.94493 6.78159 5.99994 6.59995 5.99999H5.39995C5.21831 5.99994 5.04094 5.94493 4.89115 5.84219C4.78411 5.99896 4.6414 6.1281 4.47475 6.21899L2.97475 7.03739C2.17495 7.47359 1.19995 6.89459 1.19995 5.98379V3.01619C1.19995 2.10539 2.17495 1.52639 2.97475 1.96199L4.47475 2.78099ZM3.29995 4.49999C3.29995 4.57956 3.33156 4.65587 3.38782 4.71213C3.44408 4.76839 3.52039 4.79999 3.59995 4.79999H4.79995V4.19999H3.59995C3.52039 4.19999 3.44408 4.2316 3.38782 4.28786C3.33156 4.34412 3.29995 4.42043 3.29995 4.49999ZM8.39995 4.19999H7.19995V4.79999H8.39995C8.47952 4.79999 8.55582 4.76839 8.61208 4.71213C8.66834 4.65587 8.69995 4.57956 8.69995 4.49999C8.69995 4.42043 8.66834 4.34412 8.61208 4.28786C8.55582 4.2316 8.47952 4.19999 8.39995 4.19999ZM4.98295 6.62999C4.90555 6.66959 4.84315 6.70199 4.76215 6.74579L3.32515 7.52999L2.75035 8.96639C2.69586 9.10293 2.67564 9.25074 2.69147 9.3969C2.7073 9.54305 2.75869 9.68311 2.84115 9.80481C2.92361 9.92652 3.03463 10.0262 3.1645 10.0951C3.29437 10.164 3.43914 10.2 3.58615 10.2H4.49995C4.73865 10.2 4.96756 10.1052 5.13635 9.93639C5.30513 9.76761 5.39995 9.53869 5.39995 9.29999V6.59999H5.03995L4.98295 6.62999ZM6.59995 9.29999V6.59999H6.95635L7.06855 6.65759C7.12375 6.68579 7.17655 6.71279 7.23775 6.74579L8.67475 7.52939L9.24955 8.96579C9.30417 9.10236 9.32448 9.25024 9.30872 9.39648C9.29295 9.54271 9.24158 9.68286 9.1591 9.80465C9.07663 9.92643 8.96556 10.0262 8.83563 10.0951C8.70569 10.164 8.56084 10.2 8.41375 10.2H7.49995C7.26126 10.2 7.03234 10.1052 6.86356 9.93639C6.69477 9.76761 6.59995 9.53869 6.59995 9.29999Z" fill="white"/>
</svg>