<svg xmlns="http://www.w3.org/2000/svg" width="12" height="12" viewBox="0 0 12 12" fill="none">
  <g clip-path="url(#clip0_1552_496)">
    <path d="M7.53495 1.99998C7.51167 1.97583 7.48369 1.9567 7.45273 1.9438C7.42177 1.9309 7.38848 1.9245 7.35495 1.92498C7.28971 1.92459 7.22691 1.94971 7.17995 1.99498L1.71995 7.45498C1.69651 7.47822 1.67791 7.50587 1.66522 7.53634C1.65253 7.5668 1.646 7.59948 1.646 7.63248C1.646 7.66549 1.65253 7.69816 1.66522 7.72863C1.67791 7.75909 1.69651 7.78674 1.71995 7.80998L4.18995 10.28C4.23764 10.3278 4.30238 10.3548 4.36995 10.355C4.40264 10.3548 4.43497 10.3481 4.46503 10.3352C4.49508 10.3223 4.52226 10.3035 4.54495 10.28L9.99995 4.82498C10.0461 4.77741 10.0719 4.71375 10.0719 4.64748C10.0719 4.58122 10.0461 4.51756 9.99995 4.46998L7.53495 1.99998Z" fill="white"/>
    <path d="M1.21497 8.39998C1.18282 8.37002 1.14347 8.34888 1.10073 8.33861C1.058 8.32833 1.01334 8.32928 0.97108 8.34135C0.928821 8.35343 0.8904 8.37622 0.859544 8.40752C0.828689 8.43882 0.806446 8.47756 0.794974 8.51998L0.039974 11.655C0.0299687 11.6969 0.0311709 11.7406 0.0434597 11.7819C0.0557484 11.8231 0.0786899 11.8604 0.109974 11.89C0.140107 11.9205 0.177434 11.9428 0.218508 11.9551C0.259582 11.9673 0.303077 11.969 0.344974 11.96L3.49997 11.205C3.54297 11.1948 3.5824 11.1731 3.61409 11.1423C3.64578 11.1115 3.66855 11.0727 3.67997 11.03C3.69159 10.9874 3.69217 10.9426 3.68167 10.8997C3.67118 10.8569 3.64994 10.8174 3.61997 10.785L1.21497 8.39998Z" fill="white"/>
    <path d="M11.6 1.46L10.54 0.399996C10.3042 0.167321 9.98622 0.0368652 9.65496 0.0368652C9.32369 0.0368652 9.00575 0.167321 8.76996 0.399996L8.06496 1.11C8.04104 1.13244 8.02198 1.15955 8.00895 1.18965C7.99592 1.21975 7.9892 1.2522 7.9892 1.285C7.9892 1.31779 7.99592 1.35024 8.00895 1.38034C8.02198 1.41044 8.04104 1.43755 8.06496 1.46L10.54 3.96C10.5624 3.98391 10.5895 4.00297 10.6196 4.016C10.6497 4.02903 10.6822 4.03576 10.715 4.03576C10.7478 4.03576 10.7802 4.02903 10.8103 4.016C10.8404 4.00297 10.8675 3.98391 10.89 3.96L11.6 3.225C11.8335 2.99069 11.9647 2.67334 11.9647 2.3425C11.9647 2.01165 11.8335 1.6943 11.6 1.46Z" fill="white"/>
  </g>
  <defs>
    <clipPath id="clip0_1552_496">
      <rect width="12" height="12" fill="white"/>
    </clipPath>
  </defs>
</svg>